<svg xmlns="http://www.w3.org/2000/svg" xmlns:xlink="http://www.w3.org/1999/xlink" viewBox="0 0 133.83 77.85"><defs><style>.a{fill:url(#a);}.b{fill:url(#b);}.c{isolation:isolate;}.d{fill:url(#c);}.e{fill:url(#d);}.f{fill:url(#e);}.g{fill:url(#f);}.h{fill:url(#g);}.i{fill:url(#h);}.j{fill:url(#i);}.k{fill:#fff;}.l{fill:url(#j);}.m{fill:url(#k);}.n{fill:url(#l);}.o{opacity:0.15;}.p{fill:none;stroke:#4e7fff;stroke-linecap:round;stroke-miterlimit:10;}</style><linearGradient id="a" x1="8" y1="27.27" x2="96.7" y2="27.27" gradientUnits="userSpaceOnUse"><stop offset="0" stop-color="#292376"/><stop offset="1" stop-color="#5d278f" stop-opacity="0"/></linearGradient><linearGradient id="b" x1="45.13" y1="48.18" x2="133.83" y2="48.18" xlink:href="#a"/><linearGradient id="c" y1="26.27" x2="88.7" y2="26.27" gradientUnits="userSpaceOnUse"><stop offset="0" stop-color="#5ddf8f"/><stop offset="1" stop-color="#63b7c9"/></linearGradient><linearGradient id="d" x1="32.32" y1="35.63" x2="88.82" y2="35.63" xlink:href="#c"/><linearGradient id="e" x1="32.43" y1="38.26" x2="93.39" y2="38.26" xlink:href="#c"/><linearGradient id="f" x1="39.18" y1="42.73" x2="96.19" y2="42.73" xlink:href="#c"/><linearGradient id="g" y1="56.22" x2="69.45" y2="56.22" xlink:href="#c"/><linearGradient id="h" x1="69.28" y1="59.89" x2="125.83" y2="59.89" xlink:href="#c"/><linearGradient id="i" x1="37.13" y1="47.71" x2="125.83" y2="47.71" xlink:href="#c"/><linearGradient id="j" x1="111.17" y1="40.87" x2="33.67" y2="20.54" gradientUnits="userSpaceOnUse"><stop offset="0" stop-color="#ffede0"/><stop offset="0.97" stop-color="#fff"/></linearGradient><linearGradient id="k" x1="8.98" y1="35" x2="84.73" y2="66.5" xlink:href="#j"/><linearGradient id="l" x1="122.15" y1="58.38" x2="63.32" y2="36.04" xlink:href="#j"/></defs><title>Asset 6</title><polygon class="a" points="8 35.59 64.38 2.83 96.7 18.95 40.32 51.71 8 35.59"/><path class="b" d="M45.13,54.49l56.38-32.77,32.31,21.2L80.65,73.83a6,6,0,0,1-6.31-.17Z"/><g class="c"><polygon class="d" points="0 34.59 56.38 1.83 88.7 17.95 32.32 50.71 0 34.59"/><polygon class="e" points="32.32 50.71 88.7 17.95 88.82 20.55 32.43 53.32 32.32 50.71"/><polygon class="f" points="32.43 53.32 88.82 20.55 93.39 23.19 37.01 55.96 32.43 53.32"/><path class="g" d="M95.56,27,39.18,59.74a1.45,1.45,0,0,0,.63-1.26L96.19,25.71A1.45,1.45,0,0,1,95.56,27Z"/><path class="h" d="M37.13,53.49l32.31,21.2-.17,3.17L39.81,58.48c-.06,1.29-1,1.77-2.16,1.11L31.78,56.2a4.78,4.78,0,0,1-2.15-3.57L.15,37.94,0,34.59,32.32,50.71l.11,2.61L37,56Z"/><polygon class="i" points="69.45 74.69 125.83 41.92 125.66 45.09 69.28 77.85 69.45 74.69"/><polygon class="j" points="37.13 53.49 93.52 20.72 125.83 41.92 69.45 74.69 37.13 53.49"/></g><g class="c"><polygon class="k" points="89.95 21.5 89.82 23.97 42.54 51.44 41.66 50.86 40.54 51.51 40.61 50.17 89.95 21.5"/><path class="l" d="M76.32,5.29C63.41-2.17,56.43.4,56.06.53L6.72,29.21C7.09,29.07,14.07,26.5,27,34c9.09,5.25,10.94,12.25,11.24,15.94L87.55,21.22C87.26,17.54,85.41,10.54,76.32,5.29Z"/><path class="m" d="M69.54,67.78l-.1,1.31v0L41.66,50.86l-1-.69-.07,1.34-1,.58L35.92,50l-.12-2.6L7,33.06,6.72,29.2C7.09,29.07,14.07,26.5,27,34c9.09,5.25,10.94,12.25,11.24,15.93.43-2.61,2.52-5.68,11.1-.72A63.83,63.83,0,0,1,69.54,67.78Z"/><path class="n" d="M40,47,89.29,18.34c1.54-.9,4.34-.74,9.36,2.16a63.84,63.84,0,0,1,20.22,18.61L69.54,67.78A63.84,63.84,0,0,0,49.32,49.17C44.29,46.27,41.5,46.11,40,47Z"/><polygon class="k" points="69.54 67.78 118.87 39.11 118.78 40.47 69.44 69.14 69.54 67.78"/></g><g class="o"><path class="p" d="M79.78,18.2c-.22-.43-.16-1.07-.43-1.52s-.89-.63-1.19-1.05-1.09-.39-1.42-.79-.5-.84-.86-1.21-.72-.64-1.1-1-.89-.44-1.29-.76-.46-1-.88-1.29-.39-1.21-.82-1.49-1-.28-1.46-.54-.79-.59-1.2-.81-1-.23-1.4-.45-1.12.07-1.54-.12-.55-1.15-1-1.33-1.25.47-1.68.3S62.92,5,62.48,4.88s-.85-.62-1.29-.75-1,0-1.49-.07-1,0-1.46-.07-.88-.78-1.32-.85-1.07.54-1.51.5c0,0,0,.63,0,.63"/><path class="p" d="M49.24,7.11c.45,0,.9.28,1.4.36S51.71,6.85,52.2,7s.92.3,1.4.43.87.44,1.35.58.54,1.33,1,1.49,1.33-.9,1.79-.72.75.68,1.21.88.77.59,1.22.8.75.61,1.18.83.69.71,1.12.94,1.16-.14,1.59.1.89.51,1.3.77,1,.32,1.43.6.29,1.29.67,1.6.83.56,1.19.89.45.95.79,1.3.92.49,1.23.87.84.62,1.13,1,.85.67,1.1,1.09.3,1,.51,1.44"/><path class="p" d="M43.08,10.57c.45,0,.85.69,1.35.76s1-.41,1.51-.31.69,1.1,1.18,1.22,1-.18,1.48,0,1,0,1.44.18.84.43,1.3.61.75.64,1.2.84.76.57,1.21.78,1,.05,1.45.27.73.64,1.16.87,1,.08,1.46.33.73.73,1.14,1,1.13.14,1.53.43.24,1.33.62,1.64,1,.33,1.37.66,1.36.07,1.7.42.78.72,1.09,1.09.34,1.06.62,1.46.26,1.05.51,1.47,1.19.53,1.41,1"/><path class="p" d="M60.64,29.28c-.22-.43-.62-.73-.89-1.17s0-1.17-.27-1.58-.49-.87-.82-1.27-1.17-.26-1.53-.63-.22-1.16-.6-1.51-1-.35-1.39-.67-.18-1.4-.6-1.7-1.1-.19-1.53-.47-1.07-.14-1.52-.4-.36-1.35-.77-1.58-.89-.43-1.31-.64-1.3.43-1.72.23-.59-1-1-1.23-.86-.5-1.29-.67-1.16.32-1.6.17-.82-.62-1.26-.75-1,.05-1.47-.06-.76-1.09-1.21-1.18-1.13.71-1.57.64-.93-.38-1.38-.41c0,0,0,.2,0,.2"/><path class="p" d="M30.74,17.88c.45,0,1-.43,1.5-.35S33,18.86,33.45,19s.91.08,1.4.2,1.19-.77,1.66-.62.85.47,1.32.63,1,.19,1.41.37.94.25,1.39.45.6,1,1,1.2.85.4,1.29.62.62.85,1,1.08,1.07,0,1.5.26.46,1.17.87,1.43,1.58-.51,2-.23.87.59,1.25.89.74.75,1.1,1.08.37,1.1.7,1.45,1.22.3,1.53.68-.39,1.59-.11,2,.94.56,1.19,1,.74.75,1,1.18"/><path class="p" d="M24.59,21.16c.45,0,1,0,1.47,0s.83.73,1.32.83.75.82,1.23.94,1.14-.65,1.62-.5,1,.06,1.45.22.59,1.1,1.05,1.28.93.2,1.38.39,1.18-.31,1.63-.1.65.84,1.09,1.06,1.09,0,1.52.22.37,1.3.79,1.54.8.61,1.21.87,1.19,0,1.59.33.68.79,1.06,1.09,1,.4,1.37.73.09,1.34.43,1.69.86.55,1.17.92.86.6,1.14,1,.41.93.66,1.35,1.1.56,1.32,1"/></g><g class="o"><path class="p" d="M62.34,36.71c.43.11,1-.28,1.51-.09s1,0,1.48.24.53,1,1,1.27.77.52,1.21.78,1.36-.3,1.78,0l1.29.81c.43.28.91.49,1.32.77s.66.84,1.06,1.13.73.72,1.13,1,.44,1.08.83,1.39,1,.35,1.4.67,1,.43,1.34.76,1.16.24,1.53.57.7.76,1.06,1.11.11,1.35.46,1.7.85.59,1.18.95.85.61,1.17,1,1,.52,1.29.88-.16,1.48.15,1.85"/><path class="p" d="M68.7,32.38c.43.11.69.83,1.18,1s1,0,1.45.25.86.37,1.31.61.75.59,1.19.85.8.62,1.23.88,1,.24,1.46.51.54,1,.95,1.29,1.44-.29,1.85,0,.65.84,1,1.14.54,1,.93,1.27,1.09.26,1.48.58.51,1,.88,1.3.93.49,1.29.82.82.62,1.17,1,.34,1.11.69,1.46.57.85.91,1.21,1.29.19,1.62.55.87.62,1.18,1,.78.7,1.09,1.07"/><path class="p" d="M74.83,28.31s0,.47,0,.48a13,13,0,0,1,1.42.38c.42.16.58,1,1.05,1.24s1.13-.2,1.59,0,.76.59,1.2.85,1.25-.1,1.67.16.53,1.07,1,1.35,1.18.08,1.59.36.58,1,1,1.25.35,1.23.74,1.53,1.32,0,1.71.26.52,1,.9,1.29.94.46,1.32.78l1.13,1c.38.35.38,1.07.74,1.42s1.46,0,1.81.32.65.81,1,1.16.5.94.83,1.3.07,1.31.39,1.67.85.61,1.16,1"/><path class="p" d="M81,25.43c.43.11.69.76,1.18.94s1.37-.87,1.85-.65.27,1.59.73,1.82,1.33-.47,1.78-.21.49,1.16.92,1.42,1.1.15,1.52.43.66.83,1.08,1.11,1.14.14,1.55.43.51,1,.91,1.32.93.45,1.33.76.65.8,1,1.12,1.2.16,1.58.49.57.9.93,1.23.26,1.2.62,1.55l1.08,1c.37.37.79.64,1.12,1s1,.5,1.28.86.66.78,1,1.15,1,.5,1.31.87"/><path class="p" d="M87.31,21.18c.43.11.88.46,1.37.64s.52,1.19,1,1.41.79.47,1.24.7,1,.15,1.42.41.74.72,1.17,1,1.15.06,1.57.34.93.44,1.34.72.83.59,1.23.88.6.9,1,1.2,1.25.05,1.64.36.66.81,1,1.13.55.92.93,1.25.44,1,.8,1.36.71.72,1.06,1.06,1.59-.16,1.94.19.42,1,.76,1.39.86.6,1.19,1,.61.84.92,1.21.53.91.83,1.28"/></g></svg>