<svg xmlns="http://www.w3.org/2000/svg" xmlns:xlink="http://www.w3.org/1999/xlink" viewBox="0 0 52.04 44.99"><defs><style>.a{fill:url(#a);}.b{fill:url(#b);}.c{opacity:0.25;fill:url(#c);}.d{fill:url(#d);}.e{opacity:0.35;}.f{fill:url(#e);}.g{fill:url(#f);}.h{fill:url(#g);}.i{fill:url(#h);}</style><linearGradient id="a" x1="12.82" y1="36.73" x2="52.14" y2="23.03" gradientUnits="userSpaceOnUse"><stop offset="0" stop-color="#292376"/><stop offset="1" stop-color="#5d278f" stop-opacity="0"/></linearGradient><linearGradient id="b" x1="42.35" y1="15.25" x2="52.04" y2="15.25" gradientUnits="userSpaceOnUse"><stop offset="0" stop-color="#e76384"/><stop offset="1" stop-color="#fbb78e"/></linearGradient><linearGradient id="c" x1="48.16" y1="10.28" x2="46.22" y2="16.69" gradientUnits="userSpaceOnUse"><stop offset="0" stop-color="#ad4b5c"/><stop offset="1" stop-color="#fb4e45" stop-opacity="0"/></linearGradient><linearGradient id="d" x1="-2.62" y1="22.5" x2="54.21" y2="22.5" xlink:href="#b"/><linearGradient id="e" x1="21.26" y1="25.76" x2="40.14" y2="25.76" gradientUnits="userSpaceOnUse"><stop offset="0.03" stop-color="#fff"/><stop offset="1" stop-color="#dbf9ea" stop-opacity="0"/></linearGradient><linearGradient id="f" x1="11.43" y1="23.18" x2="35.66" y2="2.29" gradientUnits="userSpaceOnUse"><stop offset="0" stop-color="#dbf9ea"/><stop offset="0.97" stop-color="#fff"/></linearGradient><linearGradient id="g" x1="37.66" y1="4.36" x2="8.6" y2="23.42" gradientUnits="userSpaceOnUse"><stop offset="0" stop-color="#dbf9ea" stop-opacity="0"/><stop offset="1" stop-color="#8ccace"/></linearGradient><linearGradient id="h" x1="6.25" y1="20.87" x2="48.5" y2="13" gradientUnits="userSpaceOnUse"><stop offset="0" stop-color="#534741"/><stop offset="1" stop-color="#d1985c"/></linearGradient></defs><title>Asset 4</title><path class="a" d="M45.59,21.79c-8.4-4.85-22-4.85-30.33,0s-8.3,12.72.1,17.57,22,4.85,30.33,0,8.31-12.72-.1-17.57"/><path class="b" d="M46.19,24.1q0,.57-.06,1.11C49.74,20.9,52,16,52,12.06a6.44,6.44,0,0,0-2.95-5.8,5.85,5.85,0,0,0-3.15-1,7.34,7.34,0,0,0-3.59,1c.28.25.54.52.8.8a11.89,11.89,0,0,1,2,2.92,3.41,3.41,0,0,1,1.46-.44,1.16,1.16,0,0,1,.26,0,3.13,3.13,0,0,1,.53,2A12.34,12.34,0,0,1,46.2,16.4c0,.3,0,.6,0,.92,0,1.52,0,3.38,0,5.72Z"/><path class="c" d="M48.5,12.71a3.34,3.34,0,0,0-1.39-3.05.73.73,0,0,0-.21-.06c.77.93.74,3.51-.7,6.78,0,.3,0,.62,0,.94,0,.65,0,1.37,0,2.16A13.56,13.56,0,0,0,48.5,12.71Z"/><path class="d" d="M23.06,45C34.42,45,45.8,38.09,46.19,24.1q0-.55,0-1.07c0-2.33,0-4.19,0-5.72,0-4.49,0-6.89-3.06-10.22C38.75,2.34,30.95,0,23.16,0c-8.48,0-16.95,2.77-21,8.22A11.22,11.22,0,0,0,.66,10.85,9.53,9.53,0,0,0,0,13.54,13.35,13.35,0,0,0,0,15c0,1.29,0,3.84,0,9.2C.22,38,11.63,45,23.06,45Z"/><g class="e"><path class="f" d="M23,28.72h-.7a1.08,1.08,0,0,1-1.06-1.1,1.11,1.11,0,0,1,1.1-1.06,32.76,32.76,0,0,0,16.17-3.61,1.08,1.08,0,0,1,1.05,1.89A34.51,34.51,0,0,1,23,28.72Z"/></g><path class="g" d="M23.17,24.88C11.59,24.88,1.61,20,1.61,13.55c0-8.43,12.7-12.49,21.33-12.49,11,0,21.58,5,21.6,12.39C44.37,19.78,34.7,24.88,23.17,24.88Z"/><path class="h" d="M23.16,24.21C13,24.21,4.32,20,4.32,14.31,4.32,6.94,15.42,3.39,23,3.39c9.65,0,18.85,4.37,18.87,10.82C41.68,19.75,33.24,24.21,23.16,24.21Z"/><path class="i" d="M23.16,24.21c7.65,0,14.34-2.57,17.2-6.22a10.74,10.74,0,0,0-1.89-2,16.48,16.48,0,0,0-3.12-2.11c-1.15-.55-2.41-.8-3.58-1.27a14.56,14.56,0,0,0-2.91-1.1,9.53,9.53,0,0,0-3,.17,37.9,37.9,0,0,1-5.88.42c-2.44,0-5-.25-7.25.59a18.17,18.17,0,0,0-6,4.13,9.3,9.3,0,0,0-1,1.23C8.58,21.76,15.46,24.21,23.16,24.21Z"/></svg>